<svg width="879" height="90" viewBox="0 0 879 90" fill="none" xmlns="http://www.w3.org/2000/svg">
<g clip-path="url(#clip0_5_112)">
<path fill-rule="evenodd" clip-rule="evenodd" d="M266.159 98.6228C210.006 98.6228 184.876 76.932 184.876 44.8008C184.876 13.6646 210.001 -8.24117 266.159 -8.24117C322.091 -8.24117 347.222 13.5546 347.222 44.8008C347.222 76.937 322.201 98.6228 266.159 98.6228ZM633.847 94.6776L534.214 94.5976L534.254 81.5221C534.254 81.5221 544.354 80.3421 548.464 79.8021C552.564 79.2571 554.179 75.7669 554.159 71.9018C554.149 68.0367 554.209 23.435 554.209 18.9098C554.199 14.3847 552.139 11.7696 547.704 11.1295C543.269 10.4945 534.109 9.57447 534.109 9.57447V-4.40104H633.847C679.104 -4.40104 698.675 17.6148 698.675 43.8607C698.675 72.9968 679.104 94.6776 633.847 94.6776ZM351.652 95.0326V81.4471C351.652 81.4471 363.567 80.1271 365.432 79.8071C369.927 79.0171 371.547 76.0269 371.542 71.3418V19.4448C371.542 14.3846 369.317 11.5796 364.492 11.0446C362.932 10.8745 351.652 9.56447 351.652 9.56447V-4.41603C351.652 -4.41603 420.814 -4.47105 421.874 -4.46605C425.634 -4.44605 428.21 -2.64597 430.19 -0.110875C430.59 0.399144 482.632 69.1767 482.632 69.1767C482.632 69.1767 482.652 24.7001 482.632 20.0099C482.622 15.3197 480.982 11.8345 476.216 11.2495C474.731 11.0645 462.741 9.6595 462.741 9.6595V-4.41603H526.393V9.53948C526.393 9.53948 515.233 10.7445 512.908 11.1095C507.438 11.9595 506.532 15.6597 506.502 19.6049C506.482 23.555 506.502 95.0376 506.502 95.0376L456.591 95.0276C453.28 95.0276 449.99 93.5226 448.2 91.2275C447.02 89.7124 395.418 21.4399 395.418 21.4399C395.418 21.4399 395.393 67.4766 395.418 72.0368C395.443 76.597 397.663 79.4121 401.709 79.8971C405.749 80.3871 415.309 81.4521 415.309 81.4521V95.0376L351.652 95.0326ZM0.153651 95.0127L0.113647 81.7422C0.113647 81.7422 8.25395 80.7871 13.2891 80.1721C18.3243 79.5471 20.0394 76.307 20.0444 70.6318V20.1599C20.0544 15.0897 18.7893 11.5545 13.4391 10.7445C11.5741 10.4595 0.158648 9.19447 0.158648 9.19447L0.153651 -4.44102H79.7166L79.6416 9.11447C79.6416 9.11447 67.7762 10.4495 66.2061 10.6795C62.141 11.2445 59.8559 13.8746 59.8259 19.5698V35.3404H121.153V19.9199C121.153 14.9847 119.693 11.2745 115.078 10.6595C110.463 10.0445 101.227 8.99446 101.227 8.99446L101.257 -4.44606H180.82L180.75 9.11947C180.75 9.11947 171.25 10.2345 167.055 10.7545C162.86 11.2745 160.915 14.5147 160.925 19.8399C160.93 20.7749 160.895 65.9066 160.925 71.6118C160.955 77.327 164.14 79.4521 166.755 79.7971C169.375 80.1271 180.85 81.4171 180.85 81.4171L180.815 95.0127H101.262L101.332 81.3671C101.332 81.3671 113.448 80.0271 114.993 79.7271C120.423 78.6321 121.173 74.9419 121.153 70.4218C121.133 65.9016 121.153 55.2262 121.153 55.2262H59.8259C59.8259 55.2262 59.7809 64.4565 59.8259 71.1568C59.8709 77.857 63.021 79.7521 66.0661 80.1821C69.9162 80.6821 79.7066 81.7622 79.7066 81.7622L79.7166 95.0127H0.153651ZM652.968 45.1958C652.968 20.1799 642.853 14.6097 618.612 14.6097H593.151V75.4569H618.612C642.853 75.4619 652.968 70.4417 652.968 45.1958ZM301.525 45.1358C301.525 19.3398 288.624 10.8595 266.054 10.8595C243.478 10.8595 230.582 19.3398 230.582 45.1358C230.582 71.2717 243.483 79.5921 266.054 79.5921C288.624 79.5921 301.525 71.2717 301.525 45.1358ZM754.487 95.0526H690.839V81.4771C690.839 81.4771 699.62 80.2971 704.365 79.6821C709.11 79.0671 711.005 75.2869 711.545 74.4269C712.09 73.5868 742.591 24.175 745.246 19.7499C747.901 15.3247 745.101 11.9446 741.621 11.3246C739.191 10.8895 724.006 9.32948 724.006 9.32948L723.996 -4.42103H801.663C806.529 -4.28603 809.524 1.17915 809.524 1.17915L854.145 69.4367C857.761 74.9369 860.501 78.977 864.916 79.6321C869.341 80.2771 878.821 81.3821 878.821 81.3821L878.881 95.0326H792.883L792.963 81.5472C792.963 81.5472 798.628 80.7971 803.803 80.1221C808.989 79.4471 813.344 77.202 809.049 70.8917C804.754 64.5915 804.859 64.6515 804.859 64.6515L743.901 64.7865C743.901 64.7865 742.006 67.6366 739.046 72.2168C736.096 76.787 739.211 79.6771 743.586 80.2171L754.497 81.5721L754.487 95.0526ZM755.007 46.8159L793.398 47.0108L773.982 16.3097L755.007 46.8159Z" fill="white"/>
</g>
<defs>
<clipPath id="clip0_5_112">
<rect width="879" height="90" fill="white"/>
</clipPath>
</defs>
</svg>
