<svg width="553" height="90" viewBox="0 0 553 90" fill="none" xmlns="http://www.w3.org/2000/svg">
<path d="M351.263 76.1443C355.184 76.1443 360.813 74.9035 360.708 70.3354C360.428 57.4954 320.824 68.6857 320.792 43.6259C320.774 28.4283 336.551 23.6168 349.959 23.6168C363.982 23.6168 380.457 25.4826 381.931 42.6425H359.358C359.114 40.5423 358.251 39.0671 356.906 37.9504C355.547 36.8428 353.035 36.3465 351.07 36.3465C346.648 36.3465 343.815 37.7022 343.815 40.9145C343.815 49.9219 383.896 40.2803 383.85 67.8493C383.832 80.5423 373.904 89.8759 350.289 89.7702C336.482 89.7059 320.778 85.1195 320.838 67.2426H341.96C342.593 70.9145 344.595 75.6112 351.263 76.1443ZM528.669 88.796V25.9053H552.477V88.796H528.669ZM528.669 0.326318H552.477V16.5901H528.669V0.326318ZM203.515 57.6195L212.721 88.3594H236.116L257.619 24.568H232.658L222.814 57.4081H223.25L213.286 24.568H192.554L182.599 57.4081H182.342L172.511 24.568H147.537L169.04 88.3594H194.01L203.202 57.6195H203.515ZM0 0.321725V88.2077H25.3923V62.2702L33.8594 53.0974L57.0293 88.2077H88.2163L52.5707 34.761L84.6531 0.321725H51.2345L25.3923 27.6057V0.321725H0ZM481.525 70.9559V88.8787H457.061V0H481.525V43.7224L496.765 25.9835H522.86L501.89 49.4761L526.373 88.8787H499.415L486.094 67.261L481.525 70.9559Z" fill="white"/>
<path d="M150.2 79.2969V49.0533C150.2 34.6278 145.131 23.9246 119.637 24.0579C96.789 24.1774 88.4321 32.114 86.9168 45.5607H108.838C110.151 38.8235 116.474 37.7022 120.042 37.7022C122.746 37.7022 127.733 38.318 127.733 43.0101C127.733 55.1011 85.0893 46.7601 84.7633 70.7031C84.7679 84.1682 93.5795 89.7564 105.757 89.7564C115.349 89.7564 121.516 88.4697 128.082 84.012L130.988 88.796H151.302V88.0147C150.03 85.7858 150.26 81.9807 150.2 79.2969ZM116.432 75.6893C111.418 76.227 107.648 74.3934 107.648 71.1903V71.1535C107.648 62.7619 118.049 63.7316 126.41 59.6553C127.03 68.5386 125.088 74.7656 116.432 75.6893ZM452.717 79.2969V49.0533C452.717 34.6278 447.648 23.9246 422.159 24.0579C399.301 24.1774 390.958 32.114 389.443 45.5607H411.355C412.672 38.8235 418.995 37.7022 422.554 37.7022C425.263 37.7022 430.25 38.318 430.25 43.0101C430.25 55.1011 387.606 46.7601 387.285 70.7031C387.285 84.1682 396.101 89.7564 408.269 89.7564C417.866 89.7564 424.042 88.4697 430.599 84.012L433.505 88.796H453.819V88.0147C452.552 85.7858 452.777 81.9807 452.717 79.2969ZM418.954 75.6893C413.935 76.227 410.175 74.3934 410.175 71.1903V71.1535C410.175 62.7619 420.57 63.7316 428.936 59.6553C429.533 68.5386 427.609 74.7656 418.954 75.6893ZM317.679 79.2969V49.0533C317.679 34.6278 312.609 23.9246 287.116 24.0579C264.259 24.1774 255.915 32.114 254.4 45.5607H276.312C277.63 38.8235 283.952 37.7022 287.511 37.7022C290.22 37.7022 295.207 38.318 295.207 43.0101C295.207 55.1011 252.563 46.7601 252.247 70.7031C252.247 84.1682 261.063 89.7564 273.226 89.7564C282.823 89.7564 288.999 88.4697 295.556 84.012L298.462 88.796H318.776V88.0147C317.509 85.7858 317.734 81.9807 317.679 79.2969ZM283.911 75.6893C278.892 76.227 275.132 74.3934 275.132 71.1903V71.1535C275.132 62.7619 285.527 63.7316 293.894 59.6553C294.491 68.5386 292.553 74.7656 283.911 75.6893Z" fill="white"/>
</svg>
