<svg width="719" height="90" viewBox="0 0 719 90" fill="none" xmlns="http://www.w3.org/2000/svg">
<g clip-path="url(#clip0_5_52)">
<path fill-rule="evenodd" clip-rule="evenodd" d="M708.844 4.5676H711.41C712.519 4.5676 713.668 4.73656 713.668 6.14191C713.668 7.96962 711.801 7.75459 710.526 7.75459H708.844V8.63003H710.86L713.434 12.777H714.755L712.032 8.63003C713.629 8.5878 714.858 7.92737 714.858 6.16109C714.858 4.67128 714.048 3.78045 711.671 3.78045H707.734V12.777H708.844V4.5676ZM471.941 24.4459H515.072C517.503 24.4459 520.18 24.5726 522.477 25.21C527.324 26.6153 527.458 30.0596 527.585 34.5252C527.585 43.9671 526.556 46.39 514.435 46.39H471.941V67.0593H515.203C526.049 67.0593 526.441 71.402 526.441 80.7172V88.8766H552.726V72.5501C552.726 60.812 546.216 57.6174 535.366 56.2159C540.728 54.4304 546.858 53.2823 550.172 48.1755C553.36 43.0725 553.744 36.5679 553.744 30.7008C553.744 10.1583 545.322 3.78045 525.285 3.78045H446.039V88.8766H471.941V24.4459ZM410.889 67.616V88.8766H436.814V30.3975C436.814 10.1314 418.532 3.81502 408.565 3.81502H354.718C344.748 3.81502 326.47 10.1314 326.47 30.3975V88.8766H352.395V37.3781C352.395 29.0728 361.37 25.0833 366.352 25.0833H396.928C401.917 25.0833 410.889 29.0728 410.889 37.3781V46.3477H352.395V67.616H410.889ZM26.1335 24.4459H63.4C72.8443 24.4459 77.1804 25.9779 77.1804 36.0534C77.1804 45.3686 72.7137 47.0235 63.7802 47.0235H26.1335V67.6928H73.2245C99.3875 67.6928 103.343 57.1028 103.343 35.1626C103.343 9.25976 93.6456 3.77661 69.1418 3.77661H0.223999V88.8728H26.1335V24.4459Z" fill="white"/>
<path d="M190.493 3.01648C220.101 3.01649 229.93 10.0354 229.93 40.6532V44.7352C229.93 77.0119 228.013 87.9858 189.729 89.2606L170.202 89.6444C167.521 89.7711 164.714 89.7714 162.037 89.7714C156.165 89.7714 150.296 89.5178 144.428 89.1415C125.666 87.7323 114.435 81.3585 113.54 60.8163C113.287 55.5827 113.287 50.3526 113.287 45.119C113.283 11.6904 117.239 3.78012 151.444 3.26941L169.818 2.88562L190.493 3.01648ZM699.719 25.1102H628.754C625.835 25.1102 623.465 27.1491 623.465 30.0673C623.465 32.9893 625.835 35.3544 628.754 35.3544L681.932 35.3505C696.734 35.3505 703.409 47.3383 703.409 62.1366C703.409 76.9272 696.734 88.9188 681.932 88.9188L597.675 88.8807V67.7772H670.303C673.417 67.777 675.937 65.2505 675.937 62.1366C675.936 59.0228 673.417 56.4962 670.303 56.496L616.786 56.5995C602.318 56.5995 595.235 44.5354 595.235 30.0673C595.235 15.5991 602.314 3.86902 616.786 3.86902L699.719 3.81531V25.1102ZM265.265 67.5702H318.446V88.8768H239.358V3.78015H265.265V67.5702ZM589.67 88.8768H563.765V3.78015H589.67V88.8768ZM165.939 37.0399L154.306 31.3915L159.291 41.3641L123.396 46.3475L159.291 51.3319L154.306 61.2997L165.939 55.6512L171.593 78.9091L177.238 55.6512L188.872 61.2997L183.887 51.3319L219.782 46.3475L183.887 41.3641L188.872 31.3915L177.238 37.0399L171.593 13.7831L165.939 37.0399ZM710.733 0.228394C712.865 0.22941 714.91 1.07705 716.418 2.58386C717.926 4.09066 718.774 6.13413 718.776 8.2655C718.78 9.32409 718.574 10.3732 718.172 11.3524C717.769 12.3316 717.178 13.2222 716.431 13.9725C715.684 14.7228 714.796 15.3185 713.818 15.7255C712.841 16.1324 711.792 16.3421 710.733 16.3436C706.263 16.3435 702.649 12.7309 702.648 8.2655C702.656 6.12831 703.511 4.08102 705.027 2.5741C706.543 1.06722 708.596 0.223348 710.733 0.228394ZM710.733 1.29187C706.797 1.29198 703.932 4.35288 703.932 8.2655C703.932 12.2202 706.797 15.284 710.733 15.2841C714.651 15.2841 717.501 12.2203 717.501 8.2655C717.501 4.35281 714.651 1.29187 710.733 1.29187Z" fill="white"/>
</g>
<defs>
<clipPath id="clip0_5_52">
<rect width="719" height="90" fill="white"/>
</clipPath>
</defs>
</svg>
