<svg width="563" height="90" viewBox="0 0 563 90" fill="none" xmlns="http://www.w3.org/2000/svg">
<g clip-path="url(#clip0_5_49)">
<path d="M307.385 17.0483V2.75209H210.402V23.1752H257.873L210.402 68.106V84.4445H307.385V64.0214H260.425L307.385 19.0906V17.0483ZM531.978 2.75209H562.604V84.4445H531.978V2.75209ZM450.308 31.855V2.75209H419.681V84.4445H450.308V52.2781L482.465 84.4445H523.811L477.871 41.556L524.831 2.75209H483.486L450.308 31.855ZM378.846 2.75209V52.2781C378.846 59.4262 376.805 68.106 360.471 68.106C344.137 68.106 343.116 59.4262 343.116 52.2781V2.75209H312.49V54.831C312.49 79.3387 319.125 89.5503 359.45 89.5503C399.774 89.5503 409.473 79.3387 409.473 54.831V2.75209H378.846ZM174.672 2.75209V52.2781C174.672 59.4262 172.63 68.106 156.296 68.106C139.962 68.106 138.941 59.4262 138.941 52.2781V2.75209H108.315V54.831C108.315 79.3387 118.013 89.5503 158.338 89.5503C198.662 89.5503 205.298 79.3387 205.298 54.831V2.75209H174.672ZM39.4057 58.9156C40.937 64.532 44.5101 68.106 54.7188 68.106C62.3754 68.106 65.9485 66.5743 65.9485 64.0214C65.9485 57.3839 61.3545 57.3839 30.2179 53.2993C-0.408379 49.2146 0.6125 29.8127 0.6125 26.7492C0.6125 0.709778 37.364 0.709778 50.1249 0.709778C73.0946 0.709778 98.106 7.85786 98.106 27.7704H62.3754C61.3545 23.6858 56.2501 19.6011 47.0623 19.6011C39.4057 19.6011 35.3222 21.1329 35.3222 24.1963C35.3222 29.8127 37.8744 29.3021 67.9902 33.8973C98.6164 38.4925 101.679 53.2993 101.679 61.4685C101.679 88.5291 63.9067 86.9974 51.1458 86.9974C20.5195 86.9974 1.12293 80.3599 0.102051 58.405H39.4057V58.9156Z" fill="white"/>
</g>
<defs>
<clipPath id="clip0_5_49">
<rect width="563" height="90" fill="white"/>
</clipPath>
</defs>
</svg>
