<svg width="360" height="90" viewBox="0 0 360 90" fill="none" xmlns="http://www.w3.org/2000/svg">
<path d="M281.016 34.4981H263.761V0.000183105H247.999V90.0011H263.761V50.4779H281.016V90.0011H297.121V0.000183105H281.016V34.4981Z" fill="white"/>
<path d="M0 0L17.4924 55.1863V90.0009H35.0016V53.3984L53.1353 0H38.4005L26.4971 35.0636L15.7214 0H0Z" fill="white"/>
<path d="M152.016 0.000183105L144.466 42.8126L135.71 0.000183105H111.104V90.0011H125.214V22.1582L137.256 81.1358H150.433L161.113 21.2003V90.0011H177.658V0.000183105H152.016Z" fill="white"/>
<path d="M345.147 0.000183105H320.773L304.326 90.0011H318.911L322.399 69.0582H340.541L343.926 90.0011H359.996L345.147 0.000183105ZM324.901 54.0551L331.606 13.8031L338.118 54.0551H324.901Z" fill="white"/>
<path d="M201.312 0.000183105L184.86 90.0011H199.448L202.939 69.0582H221.082L224.465 90.0011H240.533L225.682 0.000183105H201.312ZM205.437 54.0551L212.144 13.8031L218.654 54.0551H205.437Z" fill="white"/>
<path d="M64.4126 0.000183105L47.9607 90.0011H62.5508L66.0423 69.0582H84.1827L87.5678 90.0011H103.633L88.7833 0.000183105H64.4126ZM68.5401 54.0551L75.247 13.8031L81.7553 54.0551H68.5401Z" fill="white"/>
</svg>
