<svg width="861" height="113" viewBox="0 0 861 113" fill="none" xmlns="http://www.w3.org/2000/svg">
<path d="M540.026 21.3463V3.3976H418.231V29.0386H477.847L418.231 85.4489V105.962H540.026V80.3207H481.052L540.026 23.9104V21.3463ZM822.078 3.3976H860.539V105.962H822.078V3.3976ZM719.513 39.9361V3.3976H681.052V105.962H719.513V65.5771L759.898 105.962H811.821L754.129 52.1155L813.103 3.3976H761.18L719.513 39.9361ZM629.77 3.3976V65.5771C629.77 74.5514 627.206 85.4489 606.693 85.4489C586.18 85.4489 584.898 74.5514 584.898 65.5771V3.3976H546.437V68.7822C546.437 99.5514 554.77 112.372 605.411 112.372C656.052 112.372 668.231 99.5514 668.231 68.7822V3.3976H629.77ZM373.36 3.3976V65.5771C373.36 74.5514 370.796 85.4489 350.283 85.4489C329.77 85.4489 328.488 74.5514 328.488 65.5771V3.3976H290.026V68.7822C290.026 99.5514 302.206 112.372 352.847 112.372C403.488 112.372 411.821 99.5514 411.821 68.7822V3.3976H373.36ZM203.488 73.9104C205.411 80.9617 209.898 85.4489 222.719 85.4489C232.334 85.4489 236.821 83.5258 236.821 80.3207C236.821 71.9873 231.052 71.9873 191.949 66.8591C153.488 61.7309 154.77 37.372 154.77 33.5258C154.77 0.833496 200.924 0.833496 216.949 0.833496C245.796 0.833496 277.206 9.80785 277.206 34.8079H232.334C231.052 29.6796 224.642 24.5514 213.103 24.5514C203.488 24.5514 198.36 26.4745 198.36 30.3207C198.36 37.372 201.565 36.7309 239.385 42.5002C277.847 48.2694 281.693 66.8591 281.693 77.1155C281.693 111.09 234.257 109.167 218.231 109.167C179.77 109.167 155.411 100.833 154.129 73.2694H203.488V73.9104Z" fill="currentColor"/>
<path d="M110 39.6619C103.2 45.242 82.8 53.2135 70.4 45.242L41.6 25.3132L36.8 28.1032L110 78.7224C91.6 85.8968 70.4 100.246 55.2 113L0.8 74.3381C8.8 68.3594 27.6 61.1851 40 69.1566L69.2 89.484L73.2 86.6939L0 35.6762C15.6 30.0961 44 12.5587 54.8 1L110 39.6619Z" fill="currentColor"/>
</svg>
