<svg width="777" height="77" viewBox="0 0 777 77" fill="none" xmlns="http://www.w3.org/2000/svg">
<path fill-rule="evenodd" clip-rule="evenodd" d="M776.439 76.358C755.354 76.358 734.269 76.358 712.771 76.358C712.771 72.971 712.771 69.9891 712.771 66.6071C715.03 66.3161 717.431 66.047 719.82 65.69C722.426 65.299 726.127 64.8171 725.313 61.6291C724.557 58.6701 721.609 54.125 719.443 54.0191C705.454 53.3291 691.397 53.323 677.409 54.018C675.216 54.127 672.293 58.6681 671.444 61.6531C670.506 64.9581 674.173 65.4051 676.778 65.7881C678.882 66.0971 681.002 66.293 683.329 66.562C683.329 69.7561 683.329 72.76 683.329 75.979C667.74 75.979 652.422 75.979 636.881 75.979C636.881 72.72 636.881 69.726 636.881 66.979C637.277 66.634 637.395 66.4431 637.499 66.4501C647.218 67.161 652.322 61.6241 656.628 53.6671C662.408 42.9851 669.23 32.8671 675.565 22.4821C679.286 16.3831 677.992 14.038 670.74 13.411C667.693 13.146 664.659 12.7231 661.405 12.3481C661.405 9.09006 661.405 6.09405 661.405 2.57505C665.626 2.57505 669.589 2.57505 673.55 2.57505C687.112 2.57505 700.677 2.77105 714.232 2.47605C719.481 2.36305 722.857 4.21507 725.653 8.57307C735.799 24.3841 746.672 39.7531 756.28 55.8791C761.215 64.1571 767.616 66.8681 776.441 66.1851C776.439 69.5761 776.439 72.966 776.439 76.358ZM683.742 40.3911C693.712 40.3911 702.804 40.3911 712.595 40.3911C707.504 32.6141 702.828 25.468 697.716 17.66C692.882 25.522 688.489 32.6691 683.742 40.3911Z" fill="currentColor"/>
<path fill-rule="evenodd" clip-rule="evenodd" d="M520.408 75.9747C520.408 72.6807 520.408 69.7907 520.408 66.5447C523.212 66.1567 525.902 65.6117 528.614 65.4517C532.774 65.2077 534.91 62.9707 534.944 59.0177C535.054 45.7797 535.037 32.5387 534.957 19.2987C534.937 15.7297 533.09 13.5977 529.313 13.3137C526.736 13.1207 524.177 12.6797 521.421 12.3257C521.421 9.06872 521.421 6.07573 521.421 2.82173C523.015 2.72973 524.362 2.58573 525.709 2.58473C548.65 2.57173 571.601 2.16771 594.524 2.78471C603.141 3.01671 612.045 4.59873 620.201 7.37873C634.569 12.2747 642.101 24.2427 642.134 39.3407C642.167 54.4627 634.682 66.2757 620.339 71.4227C613.074 74.0307 605.125 75.8037 597.44 75.9807C572.511 76.5537 547.562 76.2177 522.621 76.2217C522.028 76.2217 521.438 76.0927 520.408 75.9747ZM563.907 61.7687C574.486 61.7687 584.484 62.1377 594.439 61.6417C601.347 61.2957 606.187 56.8477 607.026 50.1087C607.905 43.0397 607.78 35.7147 607.019 28.6157C606.406 22.8847 602.444 18.2487 596.595 17.6477C585.816 16.5397 574.926 16.4997 563.907 16.0067C563.907 32.0287 563.907 46.9077 563.907 61.7687Z" fill="currentColor"/>
<path fill-rule="evenodd" clip-rule="evenodd" d="M432.244 66.5078C432.244 69.7978 432.244 72.7917 432.244 76.0117C416.751 76.0117 401.537 76.0117 385.926 76.0117C385.926 72.9248 385.926 69.8207 385.926 66.5017C388.898 66.1177 391.775 65.6967 394.661 65.3857C398.334 64.9897 400.242 62.9707 400.251 59.3127C400.285 46.0587 400.281 32.8047 400.257 19.5497C400.249 15.6037 398.068 13.7167 394.246 13.3667C391.498 13.1167 388.765 12.6997 385.793 12.3267C385.793 9.12875 385.793 6.12873 385.793 2.57373C387.842 2.57373 389.641 2.57373 391.439 2.57373C405.928 2.57473 420.417 2.67375 434.904 2.51575C439.324 2.46775 442.417 3.99274 445.075 7.55774C456.312 22.6267 467.746 37.5488 479.112 52.5208C480.026 53.7248 480.978 54.8977 482.539 56.8797C482.797 54.9287 483.055 53.8597 483.059 52.7907C483.09 42.7717 483.106 32.7537 483.068 22.7347C483.04 15.1897 481.987 14.0807 474.485 13.1867C472.654 12.9687 470.838 12.6277 468.654 12.2887C468.654 9.28172 468.654 6.28173 468.654 2.92673C483.974 2.92673 499.286 2.92673 514.941 2.92673C514.941 5.96473 514.941 8.95973 514.941 12.3117C512.477 12.6497 510.075 13.0407 507.658 13.3007C501.834 13.9287 500.483 15.2197 500.451 21.2057C500.368 37.5437 500.416 53.8827 500.412 70.2197C500.411 72.0397 500.412 73.8617 500.412 76.0938C487.354 76.0938 474.772 76.3248 462.211 75.8748C460.011 75.7968 457.434 73.2298 455.847 71.1797C444.621 56.6827 433.61 42.0197 422.529 27.4107C421.338 25.8387 420.129 24.2757 418.271 21.8557C418.01 23.8737 417.755 24.9337 417.751 25.9957C417.72 35.7057 417.727 45.4167 417.734 55.1257C417.742 63.8927 418.276 64.5148 426.722 65.7238C428.397 65.9638 430.075 66.1998 432.244 66.5078Z" fill="currentColor"/>
<path fill-rule="evenodd" clip-rule="evenodd" d="M319.277 76C310.472 74.7942 301.562 74.0502 292.902 72.2121C287.606 71.0871 282.331 68.8593 277.675 66.1338C255.342 53.0573 255.508 22.3925 277.776 9.22743C286.218 4.23469 295.569 1.85766 305.275 0.940532C322.376 -0.678162 339.425 -0.706072 355.915 4.92664C376.514 11.9625 386.427 29.6805 380.116 48.4331C375.443 62.3219 364.018 69.0171 350.269 72.2083C341.664 74.2052 332.702 74.7836 323.9 76C322.36 76 320.818 76 319.277 76ZM321.659 13.1568C319.313 13.3146 316.532 13.3579 313.794 13.7072C303.889 14.9747 297.609 19.951 295.996 29.0848C294.113 39.7363 293.228 50.5551 303.724 58.2637C305.497 59.5667 307.801 60.6657 309.974 60.9082C315.73 61.552 321.595 62.2786 327.334 61.8812C339.952 61.0054 346.342 54.9637 347.731 42.9948C348.202 38.9317 348.022 34.6742 347.327 30.6352C345.509 20.0588 339.156 14.6426 328.067 13.5985C326.078 13.4098 324.079 13.3204 321.659 13.1568Z" fill="currentColor"/>
<path fill-rule="evenodd" clip-rule="evenodd" d="M124.473 12.3418C124.473 8.9488 124.473 6.07079 124.473 2.88379C143.874 2.88379 163.049 2.88379 182.595 2.88379C182.595 5.97779 182.595 8.95181 182.595 12.3128C179.826 12.6738 177.124 13.1378 174.403 13.3588C170.528 13.6718 168.441 15.7028 168.318 19.5298C168.19 23.5018 168.289 27.4808 168.289 31.7638C183.649 31.7638 198.641 31.7638 214.106 31.7638C214.106 27.4898 214.26 23.3678 214.06 19.2648C213.885 15.6928 211.804 13.7158 208.16 13.3868C205.41 13.1378 202.674 12.7338 199.672 12.3658C199.672 9.21381 199.672 6.20381 199.672 2.88281C219.073 2.88281 238.394 2.88281 258.005 2.88281C258.005 6.02081 258.005 9.0158 258.005 12.3298C255.325 12.6788 252.766 13.1728 250.188 13.3118C245.672 13.5528 243.473 15.7118 243.494 20.3048C243.552 33.0958 243.536 45.8868 243.505 58.6768C243.495 63.0088 245.538 65.1958 249.888 65.4628C252.492 65.6228 255.075 66.1188 257.975 66.5068C257.975 69.5388 257.975 72.5428 257.975 75.8988C238.673 75.8988 219.354 75.8988 199.709 75.8988C199.709 72.9328 199.709 69.9368 199.709 66.5028C202.459 66.1378 205.302 65.6448 208.166 65.4088C212.125 65.0818 213.975 62.8278 214.107 59.0938C214.244 55.2528 214.137 51.4038 214.137 47.1298C198.952 47.1298 183.956 47.1298 168.606 47.1298C168.606 51.7268 168.196 56.4838 168.831 61.0978C169.05 62.6928 171.66 64.5358 173.549 65.1838C176.249 66.1108 179.291 66.0448 182.568 66.4508C182.568 69.5108 182.568 72.5038 182.568 75.8728C163.342 75.8728 144.05 75.8728 124.521 75.8728C124.521 72.7268 124.521 69.7318 124.521 66.5188C127.475 66.1228 130.186 65.6388 132.918 65.4238C136.605 65.1328 138.775 63.1838 138.811 59.6018C138.948 46.2018 138.955 32.7968 138.84 19.3968C138.807 15.5768 136.492 13.6098 132.63 13.3458C130.036 13.1688 127.462 12.7208 124.473 12.3418Z" fill="currentColor"/>
<path fill-rule="evenodd" clip-rule="evenodd" d="M68.4869 75.9905C68.0177 75.9905 67.7617 75.9905 67.5044 75.9905C55.2786 75.9905 43.0521 75.9862 30.8257 76.0003C30.2442 76.0015 29.8148 75.8537 29.3897 75.4601C27.6946 73.8886 25.9655 72.3521 24.1152 70.6825C25.2056 70.5476 26.1338 70.425 27.0634 70.3202C32.5927 69.696 38.1226 69.0792 43.6518 68.4544C46.9531 68.0816 50.2532 67.6917 53.557 67.3311C53.8654 67.2968 54.2475 67.3305 54.501 67.4826C59.0434 70.2031 63.5719 72.945 68.1016 75.6845C68.183 75.7329 68.2504 75.8004 68.4869 75.9905Z" fill="currentColor"/>
<path fill-rule="evenodd" clip-rule="evenodd" d="M52.182 65.3573C49.9383 65.6591 47.7093 65.9609 45.4803 66.2613C40.2522 66.9666 35.0234 67.6705 29.7947 68.3772C27.6356 68.6687 25.4778 68.9718 23.3168 69.2402C23.0622 69.2723 22.7115 69.204 22.5319 69.0306C20.8358 67.4036 19.1666 65.7445 17.493 64.0922C17.4423 64.0417 17.425 63.9549 17.3628 63.8252C38.8658 59.5314 60.331 55.245 81.9911 50.9204C81.7801 51.298 81.7045 51.5014 81.5762 51.653C79.8942 53.648 78.2648 55.699 76.5001 57.608C74.4385 59.8379 71.767 60.6627 68.9173 61.0758C63.645 61.8405 58.3829 62.6946 53.1189 63.5255C51.878 63.7221 51.7023 64.0833 52.182 65.3573Z" fill="currentColor"/>
<path fill-rule="evenodd" clip-rule="evenodd" d="M91.6376 38.5745C91.5391 38.7697 91.4654 38.9815 91.3383 39.1576C89.7861 41.2988 88.288 43.4806 86.6507 45.5595C84.9352 47.7388 82.4792 48.6644 79.7576 49.1657C67.0016 51.5186 54.2552 53.9246 41.5056 56.3114C41.4039 56.3311 41.3048 56.3638 41.2031 56.3853C40.1518 56.6144 39.9643 57.1237 40.68 58.0812C39.3579 58.3331 38.0816 58.5819 36.8034 58.8184C30.2732 60.0272 23.7405 61.2255 17.2129 62.4467C16.6046 62.5606 16.1609 62.491 15.6893 62.0408C14.3946 60.8068 13.0357 59.6367 11.5757 58.3288C38.3022 51.6572 64.8978 45.0188 91.4927 38.3799C91.541 38.4445 91.5893 38.5098 91.6376 38.5745Z" fill="currentColor"/>
<path fill-rule="evenodd" clip-rule="evenodd" d="M30.568 51.545C26.9017 52.4983 23.2936 53.4377 19.6844 54.374C16.7761 55.1277 13.8641 55.8701 10.9597 56.6408C10.4832 56.7667 10.1241 56.7371 9.77392 56.3619C9.36915 55.928 8.88952 55.5622 8.48222 55.1315C7.28822 53.8672 7.50963 52.2062 9.01704 51.353C9.61912 51.0123 10.2859 50.7668 10.9476 50.5514C36.9929 42.0461 63.0458 33.564 89.0841 25.0373C92.5761 23.8932 95.9995 22.5407 99.4546 21.2858C99.7058 21.1945 99.9596 21.1139 100.241 21.0176C100.284 21.2008 100.336 21.2852 100.313 21.3381C98.8975 24.5883 97.1979 27.6818 94.971 30.4573C93.3367 32.4924 91.1905 33.7869 88.6534 34.4625C74.3863 38.2625 60.1211 42.0738 45.8553 45.8788C40.9752 47.1796 36.0927 48.4742 31.212 49.7763C30.162 50.0553 29.9704 50.5319 30.568 51.545Z" fill="currentColor"/>
<path fill-rule="evenodd" clip-rule="evenodd" d="M0.000643022 52.1723C0.389056 50.354 1.17553 48.7569 2.607 47.4974C4.0404 46.2354 5.71302 45.3896 7.47696 44.6826C31.9052 34.8983 56.3753 25.2115 80.7366 15.2682C90.0483 11.467 99.1117 7.07275 108.286 2.94589C108.425 2.88444 108.542 2.7761 108.668 2.68994C108.774 2.68994 108.879 2.68994 108.984 2.68994C108.977 2.93765 109.041 3.21388 108.953 3.42802C107.704 6.44428 106.565 9.5144 105.133 12.4451C103.664 15.4519 101.18 17.5521 97.9882 18.6975C88.512 22.1002 79.0293 25.4865 69.5222 28.8056C49.5427 35.7827 29.5445 42.7085 9.5605 49.6736C8.67628 49.9809 7.79335 50.3724 7.01845 50.8843C5.09182 52.1539 4.67125 54.1774 5.92652 56.0926C6.39082 56.8003 7.00495 57.4332 7.63387 58.0129C13.9128 63.8091 20.2091 69.5882 26.5028 75.3692C26.6719 75.5244 26.8693 75.6492 27.2211 75.9141C26.8565 75.9603 26.7407 75.9869 26.625 75.9869C23.9408 75.9907 21.2566 75.9787 18.5725 75.9996C18.1082 76.004 17.8734 75.8697 17.7185 75.4243C17.2394 74.0515 16.388 72.9136 15.3475 71.8917C11.8801 68.489 8.46407 65.0337 4.95677 61.6703C2.68674 59.4934 0.579405 57.2615 0 54.0399C0.000643069 53.4172 0.000643022 52.7957 0.000643022 52.1723Z" fill="currentColor"/>
</svg>
