<svg width="827" height="117" viewBox="0 0 827 117" fill="currentColor" xmlns="http://www.w3.org/2000/svg">
<path fill-rule="evenodd" clip-rule="evenodd" d="M0.000999928 78.4727C0.605 75.6027 1.828 73.0817 4.054 71.0937C6.283 69.1017 8.884 67.7667 11.627 66.6507C49.614 51.2067 87.666 35.9167 125.549 20.2217C140.029 14.2217 154.123 7.28568 168.39 0.771683C168.605 0.674683 168.787 0.503676 168.984 0.367676C169.148 0.367676 169.312 0.367676 169.475 0.367676C169.464 0.758676 169.564 1.19468 169.426 1.53268C167.484 6.29368 165.713 11.1397 163.486 15.7657C161.202 20.5117 157.339 23.8267 152.376 25.6347C137.64 31.0057 122.894 36.3507 108.11 41.5897C77.041 52.6027 45.943 63.5347 14.867 74.5287C13.492 75.0137 12.119 75.6317 10.914 76.4397C7.918 78.4437 7.264 81.6377 9.216 84.6607C9.938 85.7777 10.893 86.7767 11.871 87.6917C21.635 96.8407 31.426 105.963 41.213 115.088C41.476 115.333 41.783 115.53 42.33 115.948C41.763 116.021 41.583 116.063 41.403 116.063C37.229 116.069 33.055 116.05 28.881 116.083C28.159 116.09 27.794 115.878 27.553 115.175C26.808 113.008 25.484 111.212 23.866 109.599C18.474 104.228 13.162 98.7737 7.708 93.4647C4.178 90.0287 0.901 86.5057 0 81.4207C0.001 80.4377 0.000999928 79.4567 0.000999928 78.4727Z" fill="currentColor"/>
<path fill-rule="evenodd" clip-rule="evenodd" d="M369.572 116.132C360.767 114.879 351.857 114.106 343.197 112.196C337.901 111.027 332.626 108.712 327.97 105.88C305.637 92.292 305.803 60.428 328.071 46.748C336.513 41.56 345.864 39.09 355.57 38.137C372.671 36.455 389.72 36.426 406.21 42.279C426.809 49.59 436.722 68.001 430.411 87.487C425.738 101.919 414.313 108.876 400.564 112.192C391.959 114.267 382.997 114.868 374.195 116.132C372.655 116.132 371.113 116.132 369.572 116.132ZM371.954 50.831C369.608 50.995 366.827 51.04 364.089 51.403C354.184 52.72 347.904 57.891 346.291 67.382C344.408 78.45 343.523 89.692 354.019 97.702C355.792 99.056 358.096 100.198 360.269 100.45C366.025 101.119 371.89 101.874 377.629 101.461C390.247 100.551 396.637 94.273 398.026 81.836C398.497 77.614 398.317 73.19 397.622 68.993C395.804 58.003 389.451 52.375 378.362 51.29C376.373 51.094 374.374 51.001 371.954 50.831Z" fill="currentColor"/>
<path fill-rule="evenodd" clip-rule="evenodd" d="M826.439 113.358C805.354 113.358 784.269 113.358 762.771 113.358C762.771 109.971 762.771 106.989 762.771 103.607C765.03 103.316 767.431 103.047 769.82 102.69C772.426 102.299 776.127 101.817 775.313 98.6291C774.557 95.6701 771.609 91.1251 769.443 91.0191C755.454 90.3291 741.397 90.323 727.409 91.018C725.216 91.127 722.293 95.6681 721.444 98.6531C720.506 101.958 724.173 102.405 726.778 102.788C728.882 103.097 731.002 103.293 733.329 103.562C733.329 106.756 733.329 109.76 733.329 112.979C717.74 112.979 702.422 112.979 686.881 112.979C686.881 109.72 686.881 106.726 686.881 103.979C687.277 103.634 687.395 103.443 687.499 103.45C697.218 104.161 702.322 98.6241 706.628 90.6671C712.408 79.9851 719.23 69.8671 725.565 59.4821C729.286 53.3831 727.992 51.038 720.74 50.411C717.693 50.146 714.659 49.7231 711.405 49.3481C711.405 46.0901 711.405 43.0941 711.405 39.5751C715.626 39.5751 719.589 39.5751 723.55 39.5751C737.112 39.5751 750.677 39.7711 764.232 39.4761C769.481 39.3631 772.857 41.2151 775.653 45.5731C785.799 61.3841 796.672 76.7531 806.28 92.8791C811.215 101.157 817.616 103.868 826.441 103.185C826.439 106.576 826.439 109.966 826.439 113.358ZM733.742 77.3911C743.712 77.3911 752.804 77.3911 762.595 77.3911C757.504 69.6141 752.828 62.468 747.716 54.66C742.882 62.522 738.489 69.6691 733.742 77.3911Z" fill="currentColor"/>
<path fill-rule="evenodd" clip-rule="evenodd" d="M47.411 78.8477C41.632 80.3617 35.945 81.8537 30.256 83.3407C25.672 84.5377 21.082 85.7167 16.504 86.9407C15.753 87.1407 15.187 87.0937 14.635 86.4977C13.997 85.8087 13.241 85.2277 12.599 84.5437C10.717 82.5357 11.066 79.8978 13.442 78.5428C14.391 78.0018 15.442 77.6117 16.485 77.2697C57.538 63.7617 98.603 50.2907 139.645 36.7487C145.149 34.9317 150.545 32.7837 155.991 30.7907C156.387 30.6457 156.787 30.5177 157.23 30.3647C157.299 30.6557 157.38 30.7897 157.344 30.8737C155.113 36.0357 152.434 40.9488 148.924 45.3568C146.348 48.5888 142.965 50.6447 138.966 51.7177C116.478 57.7527 93.993 63.8058 71.507 69.8488C63.815 71.9148 56.119 73.9707 48.426 76.0387C46.771 76.4817 46.469 77.2387 47.411 78.8477Z" fill="currentColor"/>
<path fill-rule="evenodd" clip-rule="evenodd" d="M143.238 56.8438C143.083 57.1608 142.967 57.5048 142.767 57.7908C140.325 61.2678 137.968 64.8108 135.392 68.1868C132.693 71.7258 128.829 73.2288 124.547 74.0428C104.478 77.8638 84.4239 81.7708 64.3649 85.6468C64.2049 85.6788 64.0489 85.7318 63.8889 85.7668C62.2349 86.1388 61.9399 86.9658 63.0659 88.5208C60.9859 88.9298 58.9779 89.3338 56.9669 89.7178C46.6929 91.6808 36.4149 93.6268 26.1449 95.6098C25.1879 95.7948 24.4899 95.6818 23.7479 94.9508C21.7109 92.9468 19.5729 91.0468 17.2759 88.9228C59.3249 78.0888 101.168 67.3088 143.01 56.5278C143.086 56.6328 143.162 56.7388 143.238 56.8438Z" fill="currentColor"/>
<path fill-rule="evenodd" clip-rule="evenodd" d="M81.0319 99.7227C77.5329 100.165 74.0569 100.607 70.5809 101.047C62.4279 102.08 54.2739 103.111 46.1199 104.146C42.7529 104.573 39.3879 105.017 36.0179 105.41C35.6209 105.457 35.0739 105.357 34.7939 105.103C32.1489 102.72 29.5459 100.29 26.9359 97.8697C26.8569 97.7957 26.8299 97.6686 26.7329 97.4786C60.2659 91.1896 93.7399 84.9116 127.518 78.5776C127.189 79.1306 127.071 79.4286 126.871 79.6506C124.248 82.5726 121.707 85.5767 118.955 88.3727C115.74 91.6387 111.574 92.8467 107.13 93.4517C98.9079 94.5717 90.7019 95.8226 82.4929 97.0396C80.5579 97.3276 80.2839 97.8567 81.0319 99.7227Z" fill="currentColor"/>
<path fill-rule="evenodd" clip-rule="evenodd" d="M107.605 116.069C106.861 116.069 106.455 116.069 106.047 116.069C86.6602 116.069 67.2722 116.062 47.8842 116.085C46.9622 116.087 46.2812 115.846 45.6072 115.204C42.9192 112.641 40.1772 110.135 37.2432 107.412C38.9722 107.192 40.4442 106.992 41.9182 106.821C50.6862 105.803 59.4552 104.797 68.2232 103.778C73.4582 103.17 78.6912 102.534 83.9302 101.946C84.4192 101.89 85.0252 101.945 85.4272 102.193C92.6302 106.63 99.8112 111.102 106.994 115.57C107.123 115.649 107.23 115.759 107.605 116.069Z" fill="currentColor"/>
<path fill-rule="evenodd" clip-rule="evenodd" d="M174.473 49.3418C174.473 45.9488 174.473 43.0708 174.473 39.8838C193.874 39.8838 213.049 39.8838 232.595 39.8838C232.595 42.9778 232.595 45.9518 232.595 49.3128C229.826 49.6738 227.124 50.1378 224.403 50.3588C220.528 50.6718 218.441 52.7028 218.318 56.5298C218.19 60.5018 218.289 64.4808 218.289 68.7638C233.649 68.7638 248.641 68.7638 264.106 68.7638C264.106 64.4898 264.26 60.3678 264.06 56.2648C263.885 52.6928 261.804 50.7158 258.16 50.3868C255.41 50.1378 252.674 49.7338 249.672 49.3658C249.672 46.2138 249.672 43.2038 249.672 39.8828C269.073 39.8828 288.394 39.8828 308.005 39.8828C308.005 43.0208 308.005 46.0158 308.005 49.3298C305.325 49.6788 302.766 50.1728 300.188 50.3118C295.672 50.5528 293.473 52.7118 293.494 57.3048C293.552 70.0958 293.536 82.8868 293.505 95.6768C293.495 100.009 295.538 102.196 299.888 102.463C302.492 102.623 305.075 103.119 307.975 103.507C307.975 106.539 307.975 109.543 307.975 112.899C288.673 112.899 269.354 112.899 249.709 112.899C249.709 109.933 249.709 106.937 249.709 103.503C252.459 103.138 255.302 102.645 258.166 102.409C262.125 102.082 263.975 99.8278 264.107 96.0938C264.244 92.2528 264.137 88.4038 264.137 84.1298C248.952 84.1298 233.956 84.1298 218.606 84.1298C218.606 88.7268 218.196 93.4838 218.831 98.0978C219.05 99.6928 221.66 101.536 223.549 102.184C226.249 103.111 229.291 103.045 232.568 103.451C232.568 106.511 232.568 109.504 232.568 112.873C213.342 112.873 194.05 112.873 174.521 112.873C174.521 109.727 174.521 106.732 174.521 103.519C177.475 103.123 180.186 102.639 182.918 102.424C186.605 102.133 188.775 100.184 188.811 96.6018C188.948 83.2018 188.955 69.7968 188.84 56.3968C188.807 52.5768 186.492 50.6098 182.63 50.3458C180.036 50.1688 177.462 49.7208 174.473 49.3418Z" fill="currentColor"/>
<path fill-rule="evenodd" clip-rule="evenodd" d="M482.244 103.508C482.244 106.798 482.244 109.792 482.244 113.012C466.751 113.012 451.537 113.012 435.926 113.012C435.926 109.925 435.926 106.821 435.926 103.502C438.898 103.118 441.775 102.697 444.661 102.386C448.334 101.99 450.242 99.9707 450.251 96.3127C450.285 83.0587 450.281 69.8047 450.257 56.5497C450.249 52.6037 448.068 50.7167 444.246 50.3667C441.498 50.1167 438.765 49.6997 435.793 49.3267C435.793 46.1287 435.793 43.1287 435.793 39.5737C437.842 39.5737 439.641 39.5737 441.439 39.5737C455.928 39.5747 470.417 39.6737 484.904 39.5157C489.324 39.4677 492.417 40.9927 495.075 44.5577C506.312 59.6267 517.746 74.5488 529.112 89.5208C530.026 90.7248 530.978 91.8977 532.539 93.8797C532.797 91.9287 533.055 90.8597 533.059 89.7907C533.09 79.7717 533.106 69.7537 533.068 59.7347C533.04 52.1897 531.987 51.0807 524.485 50.1867C522.654 49.9687 520.838 49.6277 518.654 49.2887C518.654 46.2817 518.654 43.2817 518.654 39.9267C533.974 39.9267 549.286 39.9267 564.941 39.9267C564.941 42.9647 564.941 45.9597 564.941 49.3117C562.477 49.6497 560.075 50.0407 557.658 50.3007C551.834 50.9287 550.483 52.2197 550.451 58.2057C550.368 74.5437 550.416 90.8827 550.412 107.22C550.411 109.04 550.412 110.862 550.412 113.094C537.354 113.094 524.772 113.325 512.211 112.875C510.011 112.797 507.434 110.23 505.847 108.18C494.621 93.6827 483.61 79.0197 472.529 64.4107C471.338 62.8387 470.129 61.2757 468.271 58.8557C468.01 60.8737 467.755 61.9337 467.751 62.9957C467.72 72.7057 467.727 82.4167 467.734 92.1257C467.742 100.893 468.276 101.515 476.722 102.724C478.397 102.964 480.075 103.2 482.244 103.508Z" fill="currentColor"/>
<path fill-rule="evenodd" clip-rule="evenodd" d="M570.408 112.975C570.408 109.681 570.408 106.791 570.408 103.545C573.212 103.157 575.902 102.612 578.614 102.452C582.774 102.208 584.91 99.9707 584.944 96.0177C585.054 82.7797 585.037 69.5387 584.957 56.2987C584.937 52.7297 583.09 50.5977 579.313 50.3137C576.736 50.1207 574.177 49.6797 571.421 49.3257C571.421 46.0687 571.421 43.0757 571.421 39.8217C573.015 39.7297 574.362 39.5857 575.709 39.5847C598.65 39.5717 621.601 39.1677 644.524 39.7847C653.141 40.0167 662.045 41.5987 670.201 44.3787C684.569 49.2747 692.101 61.2427 692.134 76.3407C692.167 91.4627 684.682 103.276 670.339 108.423C663.074 111.031 655.125 112.804 647.44 112.981C622.511 113.554 597.562 113.218 572.621 113.222C572.028 113.222 571.438 113.093 570.408 112.975ZM613.907 98.7687C624.486 98.7687 634.484 99.1377 644.439 98.6417C651.347 98.2957 656.187 93.8477 657.026 87.1087C657.905 80.0397 657.78 72.7147 657.019 65.6157C656.406 59.8847 652.444 55.2487 646.595 54.6477C635.816 53.5397 624.926 53.4997 613.907 53.0067C613.907 69.0287 613.907 83.9077 613.907 98.7687Z" fill="currentColor"/>
</svg>
