<svg width="924" height="183" viewBox="0 0 924 183" fill="currentColor" xmlns="http://www.w3.org/2000/svg">
<path d="M603.027 57.8463V39.8976H481.232V65.5386H540.848L481.232 121.949V142.462H603.027V116.821H544.053L603.027 60.4104V57.8463ZM885.079 39.8976H923.54V142.462H885.079V39.8976ZM782.514 76.4361V39.8976H744.053V142.462H782.514V102.077L822.899 142.462H874.822L817.13 88.6155L876.104 39.8976H824.181L782.514 76.4361ZM692.771 39.8976V102.077C692.771 111.051 690.207 121.949 669.694 121.949C649.181 121.949 647.899 111.051 647.899 102.077V39.8976H609.438V105.282C609.438 136.051 617.771 148.872 668.412 148.872C719.053 148.872 731.232 136.051 731.232 105.282V39.8976H692.771ZM436.361 39.8976V102.077C436.361 111.051 433.797 121.949 413.284 121.949C392.771 121.949 391.489 111.051 391.489 102.077V39.8976H353.027V105.282C353.027 136.051 365.207 148.872 415.848 148.872C466.489 148.872 474.822 136.051 474.822 105.282V39.8976H436.361ZM266.489 110.41C268.412 117.462 272.899 121.949 285.72 121.949C295.335 121.949 299.822 120.026 299.822 116.821C299.822 108.487 294.053 108.487 254.95 103.359C216.489 98.2309 217.771 73.872 217.771 70.0258C217.771 37.3335 263.925 37.3335 279.95 37.3335C308.797 37.3335 340.207 46.3079 340.207 71.3079H295.335C294.053 66.1796 287.643 61.0514 276.104 61.0514C266.489 61.0514 261.361 62.9745 261.361 66.8207C261.361 73.872 264.566 73.2309 302.386 79.0002C340.848 84.7694 344.694 103.359 344.694 113.616C344.694 147.59 297.258 145.667 281.232 145.667C242.771 145.667 218.412 137.333 217.13 109.769H266.489V110.41Z" fill="currentColor"/>
<path d="M176.746 63.6155C165.848 72.5899 133.156 85.4104 113.284 72.5899L67.1305 40.5386L59.4382 45.0258L176.746 126.436C147.259 137.974 113.284 161.051 88.9254 181.564L1.74592 119.385C14.5664 109.769 44.6946 98.2309 64.5664 111.051L111.361 143.744L117.772 139.257L0.463867 57.2053C25.4639 48.2309 70.9767 20.0258 88.2844 1.43604L176.746 63.6155Z" fill="currentColor"/>
</svg>
