<svg width="1053" height="203" viewBox="0 0 1053 203" fill="none" xmlns="http://www.w3.org/2000/svg">
<path d="M102.071 0C46.0195 0 0.577148 45.439 0.577148 101.5C0.577148 157.551 46.0195 203 102.071 203C158.125 203 203.571 157.551 203.571 101.5C203.571 45.439 158.128 0 102.071 0ZM102.071 191.542C52.3417 191.542 12.022 151.225 12.022 101.5C12.022 51.7646 52.3384 11.4515 102.071 11.4515C151.803 11.4515 192.119 51.7646 192.119 101.5C192.119 151.225 151.803 191.542 102.071 191.542Z" fill="currentColor"/>
<path d="M175.842 142.375L161.106 125.166C160.924 124.958 160.709 124.78 160.461 124.634C159.708 124.204 158.822 124.195 158.092 124.548C155.841 125.612 153.121 125.593 150.801 124.254C148.736 123.071 147.42 121.075 147.01 118.907H147.014C145.976 113.384 142.631 108.334 137.386 105.31L130.787 101.503L168.307 79.8428L163.664 71.7954L121.5 96.136L116.433 93.2145V87.3615L158.594 63.0176L153.951 54.9735L116.433 76.6371V69.0193C116.433 62.9614 113.73 57.5381 109.47 53.8829C107.794 52.4486 106.73 50.3136 106.73 47.9308C106.73 45.2505 108.072 42.8776 110.124 41.4631C110.795 41.007 111.228 40.2337 111.228 39.3645C111.228 39.0769 111.182 38.7993 111.096 38.5416L103.564 17.1787C103.356 16.5541 102.768 16.1079 102.077 16.1079C101.39 16.1079 100.801 16.5541 100.593 17.1787L93.0645 38.5416C92.9753 38.7993 92.929 39.0769 92.929 39.3645C92.929 40.2337 93.3653 41.007 94.0296 41.4631H94.0329C96.0819 42.8776 97.427 45.2505 97.427 47.9308C97.427 50.3136 96.3661 52.4486 94.6839 53.8829C90.4206 57.5381 87.7238 62.9647 87.7238 69.0193V76.6371L50.2033 54.9735L45.5599 63.0176L87.7238 87.3615V93.2178L82.6574 96.136L40.4935 71.7954L35.8534 79.8428L73.3739 101.503L66.7708 105.31C61.5259 108.334 58.1813 113.384 57.1469 118.907C56.7371 121.075 55.425 123.071 53.3595 124.254C51.0361 125.593 48.3195 125.612 46.0656 124.548C45.3319 124.198 44.4495 124.204 43.6993 124.634C43.4481 124.78 43.23 124.961 43.0548 125.166L28.315 142.368C27.882 142.861 27.7895 143.588 28.1332 144.196C28.4769 144.787 29.1577 145.075 29.7989 144.953L52.0673 140.782C52.335 140.729 52.6027 140.633 52.8472 140.491C53.604 140.051 54.0469 139.295 54.113 138.482C54.3146 136.003 55.696 133.65 58.0161 132.311C60.075 131.128 62.4579 130.976 64.5433 131.707C69.841 133.571 75.8857 133.197 81.1305 130.163L87.7304 126.363V169.683H97.0172V120.995L102.087 118.071L107.153 120.995V169.68H116.443V126.359L123.04 130.16C128.285 133.194 134.333 133.567 139.631 131.703C141.709 130.97 144.095 131.122 146.158 132.308C148.478 133.647 149.856 136 150.057 138.478C150.12 139.291 150.566 140.051 151.317 140.488C151.565 140.63 151.832 140.726 152.1 140.779L174.365 144.949C175.009 145.072 175.687 144.784 176.034 144.193C176.368 143.588 176.272 142.864 175.842 142.375V142.375ZM87.7205 115.638L75.3371 122.783C72.9113 124.185 69.8146 123.352 68.4166 120.929C67.0186 118.5 67.8482 115.404 70.274 114.002L82.6574 106.854L87.7238 109.782V115.638H87.7205ZM97.0073 67.704C97.0073 64.9014 99.2744 62.6309 102.074 62.6309C104.873 62.6309 107.143 64.9014 107.143 67.704V81.9976L102.077 84.9192L97.0073 81.9976V67.704ZM107.904 104.864L102.077 108.225L96.2438 104.861V98.1288L102.077 94.7612L107.904 98.1288V104.864ZM135.734 120.933C134.333 123.352 131.229 124.185 128.807 122.787L116.427 115.635V109.785L121.493 106.857L133.873 114.006C136.299 115.407 137.129 118.5 135.734 120.933V120.933Z" fill="currentColor"/>
<path d="M874.907 77.9198H836.167V0.469727H800.779V202.527H836.167V113.795H874.907V202.527H911.066V0.469727H874.907V77.9198Z" fill="currentColor"/>
<path d="M243.983 0.469727L283.256 124.366V202.527H322.567V120.353L363.28 0.469727H330.198L303.473 79.1897L279.28 0.469727H243.983Z" fill="currentColor"/>
<path d="M585.283 0.469727L568.331 96.5869L548.674 0.469727H493.429V202.527H525.109V50.2159L552.144 182.624H581.73L605.707 48.0653V202.527H642.852V0.469727H585.283Z" fill="currentColor"/>
<path d="M1018.89 0.469727H964.168L927.242 202.527H959.988L967.819 155.51H1008.55L1016.15 202.527H1052.23L1018.89 0.469727ZM973.436 121.827L988.493 31.4581L1003.11 121.827H973.436Z" fill="currentColor"/>
<path d="M695.958 0.469727L659.021 202.527H691.774L699.613 155.51H740.345L747.941 202.527H784.017L750.674 0.469727H695.958ZM705.221 121.827L720.279 31.4581L734.895 121.827H705.221Z" fill="currentColor"/>
<path d="M388.599 0.469727L351.662 202.527H384.419L392.258 155.51H432.986L440.587 202.527H476.655L443.316 0.469727H388.599ZM397.867 121.827L412.924 31.4581L427.536 121.827H397.867Z" fill="currentColor"/>
</svg>
