<svg width="1067" height="233" viewBox="0 0 1067 233" fill="currentColor" xmlns="http://www.w3.org/2000/svg">
<path d="M116.07 0.42334C51.9695 0.42334 0.000976562 52.3881 0.000976562 116.5C0.000976562 180.601 51.9695 232.577 116.07 232.577C180.175 232.577 232.147 180.601 232.147 116.5C232.147 52.3881 180.179 0.42334 116.07 0.42334ZM116.07 219.473C59.1997 219.473 13.0895 173.367 13.0895 116.5C13.0895 59.6221 59.1959 13.5194 116.07 13.5194C172.945 13.5194 219.051 59.6221 219.051 116.5C219.051 173.367 172.945 219.473 116.07 219.473Z" fill="currentColor"/>
<path d="M200.437 163.245L183.584 143.565C183.376 143.327 183.131 143.123 182.847 142.957C181.985 142.466 180.972 142.454 180.137 142.859C177.563 144.076 174.453 144.053 171.8 142.522C169.437 141.169 167.933 138.886 167.464 136.407H167.468C166.281 130.091 162.457 124.316 156.458 120.858L148.911 116.504L191.82 91.7329L186.509 82.5298L138.29 110.366L132.496 107.025V100.331L180.712 72.4913L175.401 63.292L132.496 88.0668V79.355C132.496 72.4271 129.405 66.2249 124.533 62.0447C122.617 60.4044 121.4 57.9628 121.4 55.2378C121.4 52.1726 122.934 49.4589 125.281 47.8413C126.048 47.3197 126.543 46.4353 126.543 45.4413C126.543 45.1124 126.491 44.795 126.392 44.5002L117.779 20.0693C117.541 19.355 116.868 18.8447 116.078 18.8447C115.292 18.8447 114.619 19.355 114.381 20.0693L105.771 44.5002C105.669 44.795 105.616 45.1124 105.616 45.4413C105.616 46.4353 106.115 47.3197 106.875 47.8413H106.879C109.222 49.4589 110.76 52.1726 110.76 55.2378C110.76 57.9628 109.547 60.4044 107.623 62.0447C102.748 66.2249 99.6635 72.4309 99.6635 79.355V88.0668L56.7545 63.292L51.4443 72.4913L99.6635 100.331V107.029L93.8695 110.366L45.6503 82.5298L40.3438 91.7329L83.2528 116.504L75.7013 120.858C69.7032 124.316 65.8783 130.091 64.6953 136.407C64.2267 138.886 62.7262 141.169 60.364 142.522C57.707 144.053 54.6002 144.076 52.0226 142.859C51.1835 142.458 50.1744 142.466 49.3164 142.957C49.0292 143.123 48.7797 143.331 48.5794 143.565L31.7227 163.238C31.2276 163.801 31.1218 164.632 31.5148 165.328C31.9079 166.004 32.6865 166.333 33.4197 166.193L58.8862 161.424C59.1923 161.363 59.4985 161.254 59.7781 161.091C60.6437 160.588 61.1501 159.723 61.2257 158.793C61.4563 155.958 63.0361 153.267 65.6893 151.737C68.044 150.384 70.769 150.21 73.1539 151.045C79.2125 153.177 86.1252 152.75 92.1233 149.28L99.6711 144.934V194.476H110.292V138.796L116.089 135.451L121.883 138.796V194.472H132.508V144.93L140.052 149.276C146.05 152.746 152.966 153.173 159.025 151.041C161.402 150.202 164.131 150.376 166.489 151.733C169.143 153.264 170.719 155.955 170.949 158.789C171.021 159.719 171.531 160.588 172.389 161.087C172.673 161.25 172.979 161.359 173.285 161.42L198.748 166.19C199.485 166.329 200.259 166.001 200.656 165.324C201.038 164.632 200.928 163.805 200.437 163.245V163.245ZM99.6597 132.669L85.4978 140.84C82.7237 142.443 79.1822 141.49 77.5835 138.72C75.9848 135.942 76.9334 132.401 79.7076 130.798L93.8695 122.623L99.6635 125.972V132.669H99.6597ZM110.28 77.8507C110.28 74.6457 112.873 72.0491 116.074 72.0491C119.275 72.0491 121.872 74.6457 121.872 77.8507V94.1972L116.078 97.5383L110.28 94.1972V77.8507ZM122.741 120.348L116.078 124.192L109.407 120.344V112.645L116.078 108.794L122.741 112.645V120.348ZM154.569 138.724C152.966 141.49 149.417 142.443 146.647 140.844L132.489 132.665V125.975L138.283 122.627L152.441 130.802C155.215 132.404 156.164 135.942 154.569 138.724V138.724Z" fill="currentColor"/>
<path d="M888.908 92.9198H850.168V15.4697H814.78V217.527H850.168V128.795H888.908V217.527H925.067V15.4697H888.908V92.9198Z" fill="currentColor"/>
<path d="M257.984 15.4697L297.257 139.366V217.527H336.568V135.353L377.281 15.4697H344.199L317.474 94.1897L293.281 15.4697H257.984Z" fill="currentColor"/>
<path d="M599.284 15.4697L582.332 111.587L562.675 15.4697H507.43V217.527H539.11V65.2159L566.145 197.624H595.731L619.708 63.0653V217.527H656.853V15.4697H599.284Z" fill="currentColor"/>
<path d="M1032.89 15.4697H978.17L941.244 217.527H973.99L981.821 170.51H1022.55L1030.15 217.527H1066.23L1032.89 15.4697ZM987.438 136.827L1002.5 46.4581L1017.11 136.827H987.438Z" fill="currentColor"/>
<path d="M709.959 15.4697L673.021 217.527H705.775L713.614 170.51H754.346L761.942 217.527H798.018L764.675 15.4697H709.959ZM719.222 136.827L734.28 46.4581L748.895 136.827H719.222Z" fill="currentColor"/>
<path d="M402.6 15.4697L365.663 217.527H398.42L406.259 170.51H446.987L454.588 217.527H490.656L457.317 15.4697H402.6ZM411.868 136.827L426.925 46.4581L441.537 136.827H411.868Z" fill="currentColor"/>
</svg>
