<svg width="2376" height="295" viewBox="0 0 2376 295" fill="none" xmlns="http://www.w3.org/2000/svg">
<path fill-rule="evenodd" clip-rule="evenodd" d="M511.416 2.04451L573.464 0.747559L643.28 1.18849C743.264 1.18849 776.453 24.8972 776.453 128.318V142.105C776.453 251.129 769.981 288.196 640.699 292.502L574.76 293.799C565.708 294.227 556.227 294.227 547.187 294.227C527.356 294.227 507.538 293.371 487.72 292.1C424.363 287.34 386.44 265.811 383.418 196.422C382.562 178.745 382.562 161.08 382.562 143.402C382.549 30.4871 395.907 3.76949 511.416 2.04451ZM895.775 219.236H1075.37V291.205H808.294V3.76944H895.775V219.236ZM1991.27 291.205H1903.79V3.76944H1991.27V291.205ZM2082.83 4.06778C2033.96 4.06778 2010.06 43.6904 2010.06 92.5605C2010.06 141.431 2033.98 182.182 2082.83 182.182L2263.55 181.831C2274.07 181.831 2282.58 190.366 2282.58 200.884C2282.58 211.402 2274.07 219.936 2263.55 219.936H2018.3V291.218L2302.83 291.348C2352.81 291.348 2375.35 250.844 2375.35 200.884C2375.35 150.899 2352.81 110.407 2302.83 110.407L2123.25 110.42C2113.39 110.42 2105.39 102.43 2105.39 92.5605C2105.39 82.7034 2113.39 75.8165 2123.25 75.8165H2362.89V3.8862L2082.83 4.06778Z" fill="currentColor"/>
<path fill-rule="evenodd" clip-rule="evenodd" d="M1593.7 73.5726H1739.35C1747.56 73.5726 1756.6 74.0006 1764.36 76.1536C1780.73 80.9005 1781.18 92.5344 1781.61 107.618C1781.61 139.511 1778.13 147.695 1737.2 147.695H1593.7V217.511H1739.8C1776.42 217.511 1777.75 232.18 1777.75 263.645V291.205H1866.51V236.058C1866.51 196.409 1844.53 185.618 1807.89 180.884C1825.99 174.854 1846.69 170.976 1857.89 153.726C1868.65 136.489 1869.95 114.518 1869.95 94.7003C1869.95 25.3121 1841.5 3.76931 1773.84 3.76931H1506.24V291.205H1593.7V73.5726ZM1387.54 219.392V291.205H1475.08V93.6757C1475.08 25.2213 1413.35 3.88607 1379.69 3.88607H1197.85C1164.18 3.88607 1102.46 25.2213 1102.46 93.6757V291.205H1190.01V117.255C1190.01 89.2011 1220.32 75.7256 1237.14 75.7256H1340.39C1357.24 75.7256 1387.54 89.2011 1387.54 117.255V147.552H1190.01V219.392H1387.54ZM88.2518 73.5726H214.097C245.99 73.5726 260.633 78.7475 260.633 112.78C260.633 144.245 245.549 149.835 215.381 149.835H88.2518V219.651H247.274C335.624 219.651 348.983 183.88 348.983 109.771C348.983 22.2772 316.234 3.75635 233.487 3.75635H0.757812V291.192H88.2518V73.5726Z" fill="currentColor"/>
<path fill-rule="evenodd" clip-rule="evenodd" d="M742.186 147.552L620.971 164.387L637.806 198.057L598.52 178.978L579.455 257.536L560.363 178.978L521.078 198.057L537.913 164.387L416.697 147.552L537.913 130.717L521.078 97.035L560.363 116.114L579.455 37.5557L598.52 116.114L637.806 97.035L620.971 130.717L742.186 147.552Z" fill="white"/>
</svg>
