<svg width="2428" height="261" viewBox="0 0 2428 261" fill="currentColor" xmlns="http://www.w3.org/2000/svg">
<path d="M236.108 131.297H304.069C403.495 133.813 573.399 185.575 477.747 256.261H786.713C786.713 217.118 738.894 146.433 616.809 127.51C738.894 108.574 786.713 39.1469 786.713 0.0170898H477.747C558.29 75.7605 366.999 121.194 304.069 122.465H236.108V0.0170898H0.758301V256.261H236.108V131.297V131.297ZM1858.9 221.554C1869.97 221.554 1885.87 218.052 1885.58 205.16C1884.79 168.922 1772.92 200.504 1772.83 129.78C1772.78 86.8885 1817.34 73.3092 1855.21 73.3092C1894.82 73.3092 1941.36 78.575 1945.52 127.004H1881.76C1881.08 121.077 1878.64 116.914 1874.84 113.762C1871 110.636 1863.9 109.235 1858.35 109.235C1845.86 109.235 1837.86 113.062 1837.86 122.127C1837.86 147.548 1951.07 120.338 1950.94 198.143C1950.89 233.966 1922.85 260.307 1856.15 260.009C1817.15 259.827 1772.79 246.884 1772.96 196.431H1832.62C1834.41 206.794 1840.07 220.049 1858.9 221.554ZM2360 257.259V79.7681H2427.25V257.259H2360ZM2360 7.57847H2427.25V53.4784H2360V7.57847ZM1441.57 169.272L1467.57 256.027H1533.65L1594.39 75.9939H1523.89L1496.08 168.676H1497.31L1469.17 75.9939H1410.61L1382.49 168.676H1381.77L1354 75.9939H1283.46L1344.19 256.027H1414.72L1440.69 169.272H1441.57ZM866.724 7.5655V255.599H938.446V182.398L962.363 156.51L1027.81 255.599H1115.9L1015.21 104.761L1105.83 7.5655H1011.44L938.446 84.567V7.5655H866.724ZM2226.84 206.911V257.493H2157.73V6.65752H2226.84V130.052L2269.88 79.9887H2343.59L2284.36 146.29L2353.51 257.493H2277.37L2239.74 196.483L2226.84 206.911V206.911Z" fill="currentColor"/>
<path d="M1290.98 230.451V145.097C1290.98 104.385 1276.66 74.1781 1204.65 74.5543C1140.11 74.8915 1116.51 97.2903 1112.23 135.24H1174.15C1177.86 116.226 1195.71 113.062 1205.79 113.062C1213.43 113.062 1227.52 114.799 1227.52 128.042C1227.52 162.165 1107.07 138.625 1106.15 206.197C1106.16 244.199 1131.05 259.97 1165.44 259.97C1192.54 259.97 1209.96 256.339 1228.5 243.758L1236.71 257.259H1294.09V255.054C1290.5 248.764 1291.15 238.025 1290.98 230.451V230.451ZM1195.6 220.27C1181.44 221.787 1170.79 216.612 1170.79 207.572V207.468C1170.79 183.786 1200.16 186.522 1223.78 175.018C1225.53 200.089 1220.05 217.663 1195.6 220.27V220.27ZM2145.46 230.451V145.097C2145.46 104.385 2131.15 74.1781 2059.15 74.5543C1994.59 74.8915 1971.02 97.2903 1966.74 135.24H2028.63C2032.36 116.226 2050.21 113.062 2060.27 113.062C2067.92 113.062 2082 114.799 2082 128.042C2082 162.165 1961.55 138.625 1960.65 206.197C1960.65 244.199 1985.55 259.97 2019.92 259.97C2047.02 259.97 2064.47 256.339 2082.99 243.758L2091.2 257.259H2148.58V255.054C2145 248.764 2145.63 238.025 2145.46 230.451V230.451ZM2050.1 220.27C2035.92 221.787 2025.3 216.612 2025.3 207.572V207.468C2025.3 183.786 2054.66 186.522 2078.29 175.018C2079.98 200.089 2074.55 217.663 2050.1 220.27V220.27ZM1764.04 230.451V145.097C1764.04 104.385 1749.72 74.1781 1677.71 74.5543C1613.15 74.8915 1589.58 97.2903 1585.3 135.24H1647.19C1650.91 116.226 1668.77 113.062 1678.83 113.062C1686.48 113.062 1700.56 114.799 1700.56 128.042C1700.56 162.165 1580.11 138.625 1579.22 206.197C1579.22 244.199 1604.12 259.97 1638.48 259.97C1665.58 259.97 1683.03 256.339 1701.55 243.758L1709.76 257.259H1767.14V255.054C1763.56 248.764 1764.19 238.025 1764.04 230.451V230.451ZM1668.66 220.27C1654.48 221.787 1643.86 216.612 1643.86 207.572V207.468C1643.86 183.786 1673.22 186.522 1696.85 175.018C1698.54 200.089 1693.07 217.663 1668.66 220.27V220.27Z" fill="currentColor"/>
</svg>
